<svg xmlns="http://www.w3.org/2000/svg" xmlns:xlink="http://www.w3.org/1999/xlink" viewBox="-0.1 -0.1 32.2 32.2">
  <defs>
    <path d="M0 0v-1h1v2h-2V0z" id="a"/>
    <path d="M0 0h1v1h-2v-2h1z" id="d"/>
    <path d="M0 0v1h-1v-2h2v1z" id="b"/>
    <path d="M0 0h-1v-1h2v2H0z" id="c"/>
  </defs>
  <g fill="#81D4FA" stroke-width=".1" stroke="#000">
    <use xlink:href="#a" y="16" x="16"/>
    <use xlink:href="#a" y="8" x="8"/>
    <use xlink:href="#b" y="4" x="4"/>
    <use xlink:href="#b" y="2" x="2"/>
    <use xlink:href="#b" y="1" x="1"/>
    <use xlink:href="#c" y="1" x="3"/>
    <use xlink:href="#b" y="3" x="3"/>
    <use xlink:href="#d" y="3" x="1"/>
    <use xlink:href="#c" y="2" x="6"/>
    <use xlink:href="#b" y="1" x="5"/>
    <use xlink:href="#c" y="1" x="7"/>
    <use xlink:href="#a" y="3" x="7"/>
    <use xlink:href="#c" y="3" x="5"/>
    <use xlink:href="#d" y="6" x="6"/>
    <use xlink:href="#b" y="5" x="5"/>
    <use xlink:href="#b" y="5" x="7"/>
    <use xlink:href="#a" y="7" x="7"/>
    <use xlink:href="#d" y="7" x="5"/>
    <use xlink:href="#d" y="6" x="2"/>
    <use xlink:href="#b" y="5" x="1"/>
    <use xlink:href="#d" y="5" x="3"/>
    <use xlink:href="#a" y="7" x="3"/>
    <use xlink:href="#d" y="7" x="1"/>
    <use xlink:href="#c" y="4" x="12"/>
    <use xlink:href="#b" y="2" x="10"/>
    <use xlink:href="#b" y="1" x="9"/>
    <use xlink:href="#c" y="1" x="11"/>
    <use xlink:href="#b" y="3" x="11"/>
    <use xlink:href="#d" y="3" x="9"/>
    <use xlink:href="#c" y="2" x="14"/>
    <use xlink:href="#b" y="1" x="13"/>
    <use xlink:href="#c" y="1" x="15"/>
    <use xlink:href="#a" y="3" x="15"/>
    <use xlink:href="#c" y="3" x="13"/>
    <use xlink:href="#a" y="6" x="14"/>
    <use xlink:href="#a" y="5" x="13"/>
    <use xlink:href="#c" y="5" x="15"/>
    <use xlink:href="#a" y="7" x="15"/>
    <use xlink:href="#d" y="7" x="13"/>
    <use xlink:href="#c" y="6" x="10"/>
    <use xlink:href="#b" y="5" x="9"/>
    <use xlink:href="#c" y="5" x="11"/>
    <use xlink:href="#a" y="7" x="11"/>
    <use xlink:href="#c" y="7" x="9"/>
    <use xlink:href="#a" y="12" x="12"/>
    <use xlink:href="#a" y="10" x="10"/>
    <use xlink:href="#a" y="9" x="9"/>
    <use xlink:href="#c" y="9" x="11"/>
    <use xlink:href="#a" y="11" x="11"/>
    <use xlink:href="#d" y="11" x="9"/>
    <use xlink:href="#c" y="10" x="14"/>
    <use xlink:href="#b" y="9" x="13"/>
    <use xlink:href="#c" y="9" x="15"/>
    <use xlink:href="#a" y="11" x="15"/>
    <use xlink:href="#c" y="11" x="13"/>
    <use xlink:href="#a" y="14" x="14"/>
    <use xlink:href="#a" y="13" x="13"/>
    <use xlink:href="#c" y="13" x="15"/>
    <use xlink:href="#a" y="15" x="15"/>
    <use xlink:href="#d" y="15" x="13"/>
    <use xlink:href="#d" y="14" x="10"/>
    <use xlink:href="#b" y="13" x="9"/>
    <use xlink:href="#d" y="13" x="11"/>
    <use xlink:href="#a" y="15" x="11"/>
    <use xlink:href="#d" y="15" x="9"/>
    <use xlink:href="#d" y="12" x="4"/>
    <use xlink:href="#b" y="10" x="2"/>
    <use xlink:href="#b" y="9" x="1"/>
    <use xlink:href="#c" y="9" x="3"/>
    <use xlink:href="#b" y="11" x="3"/>
    <use xlink:href="#d" y="11" x="1"/>
    <use xlink:href="#d" y="10" x="6"/>
    <use xlink:href="#b" y="9" x="5"/>
    <use xlink:href="#d" y="9" x="7"/>
    <use xlink:href="#a" y="11" x="7"/>
    <use xlink:href="#d" y="11" x="5"/>
    <use xlink:href="#a" y="14" x="6"/>
    <use xlink:href="#a" y="13" x="5"/>
    <use xlink:href="#c" y="13" x="7"/>
    <use xlink:href="#a" y="15" x="7"/>
    <use xlink:href="#d" y="15" x="5"/>
    <use xlink:href="#d" y="14" x="2"/>
    <use xlink:href="#b" y="13" x="1"/>
    <use xlink:href="#d" y="13" x="3"/>
    <use xlink:href="#a" y="15" x="3"/>
    <use xlink:href="#d" y="15" x="1"/>
    <use xlink:href="#c" y="8" x="24"/>
    <use xlink:href="#b" y="4" x="20"/>
    <use xlink:href="#b" y="2" x="18"/>
    <use xlink:href="#b" y="1" x="17"/>
    <use xlink:href="#c" y="1" x="19"/>
    <use xlink:href="#b" y="3" x="19"/>
    <use xlink:href="#d" y="3" x="17"/>
    <use xlink:href="#c" y="2" x="22"/>
    <use xlink:href="#b" y="1" x="21"/>
    <use xlink:href="#c" y="1" x="23"/>
    <use xlink:href="#a" y="3" x="23"/>
    <use xlink:href="#c" y="3" x="21"/>
    <use xlink:href="#b" y="6" x="22"/>
    <use xlink:href="#b" y="5" x="21"/>
    <use xlink:href="#c" y="5" x="23"/>
    <use xlink:href="#b" y="7" x="23"/>
    <use xlink:href="#d" y="7" x="21"/>
    <use xlink:href="#d" y="6" x="18"/>
    <use xlink:href="#b" y="5" x="17"/>
    <use xlink:href="#d" y="5" x="19"/>
    <use xlink:href="#a" y="7" x="19"/>
    <use xlink:href="#d" y="7" x="17"/>
    <use xlink:href="#c" y="4" x="28"/>
    <use xlink:href="#b" y="2" x="26"/>
    <use xlink:href="#b" y="1" x="25"/>
    <use xlink:href="#c" y="1" x="27"/>
    <use xlink:href="#b" y="3" x="27"/>
    <use xlink:href="#d" y="3" x="25"/>
    <use xlink:href="#c" y="2" x="30"/>
    <use xlink:href="#b" y="1" x="29"/>
    <use xlink:href="#c" y="1" x="31"/>
    <use xlink:href="#a" y="3" x="31"/>
    <use xlink:href="#c" y="3" x="29"/>
    <use xlink:href="#a" y="6" x="30"/>
    <use xlink:href="#a" y="5" x="29"/>
    <use xlink:href="#c" y="5" x="31"/>
    <use xlink:href="#a" y="7" x="31"/>
    <use xlink:href="#d" y="7" x="29"/>
    <use xlink:href="#c" y="6" x="26"/>
    <use xlink:href="#b" y="5" x="25"/>
    <use xlink:href="#c" y="5" x="27"/>
    <use xlink:href="#a" y="7" x="27"/>
    <use xlink:href="#c" y="7" x="25"/>
    <use xlink:href="#a" y="12" x="28"/>
    <use xlink:href="#a" y="10" x="26"/>
    <use xlink:href="#a" y="9" x="25"/>
    <use xlink:href="#c" y="9" x="27"/>
    <use xlink:href="#a" y="11" x="27"/>
    <use xlink:href="#d" y="11" x="25"/>
    <use xlink:href="#c" y="10" x="30"/>
    <use xlink:href="#b" y="9" x="29"/>
    <use xlink:href="#c" y="9" x="31"/>
    <use xlink:href="#a" y="11" x="31"/>
    <use xlink:href="#c" y="11" x="29"/>
    <use xlink:href="#a" y="14" x="30"/>
    <use xlink:href="#a" y="13" x="29"/>
    <use xlink:href="#c" y="13" x="31"/>
    <use xlink:href="#a" y="15" x="31"/>
    <use xlink:href="#d" y="15" x="29"/>
    <use xlink:href="#d" y="14" x="26"/>
    <use xlink:href="#b" y="13" x="25"/>
    <use xlink:href="#d" y="13" x="27"/>
    <use xlink:href="#a" y="15" x="27"/>
    <use xlink:href="#d" y="15" x="25"/>
    <use xlink:href="#c" y="12" x="20"/>
    <use xlink:href="#b" y="10" x="18"/>
    <use xlink:href="#b" y="9" x="17"/>
    <use xlink:href="#c" y="9" x="19"/>
    <use xlink:href="#b" y="11" x="19"/>
    <use xlink:href="#d" y="11" x="17"/>
    <use xlink:href="#c" y="10" x="22"/>
    <use xlink:href="#b" y="9" x="21"/>
    <use xlink:href="#c" y="9" x="23"/>
    <use xlink:href="#a" y="11" x="23"/>
    <use xlink:href="#c" y="11" x="21"/>
    <use xlink:href="#a" y="14" x="22"/>
    <use xlink:href="#a" y="13" x="21"/>
    <use xlink:href="#c" y="13" x="23"/>
    <use xlink:href="#a" y="15" x="23"/>
    <use xlink:href="#d" y="15" x="21"/>
    <use xlink:href="#c" y="14" x="18"/>
    <use xlink:href="#b" y="13" x="17"/>
    <use xlink:href="#c" y="13" x="19"/>
    <use xlink:href="#a" y="15" x="19"/>
    <use xlink:href="#c" y="15" x="17"/>
    <use xlink:href="#a" y="24" x="24"/>
    <use xlink:href="#a" y="20" x="20"/>
    <use xlink:href="#a" y="18" x="18"/>
    <use xlink:href="#a" y="17" x="17"/>
    <use xlink:href="#c" y="17" x="19"/>
    <use xlink:href="#a" y="19" x="19"/>
    <use xlink:href="#d" y="19" x="17"/>
    <use xlink:href="#c" y="18" x="22"/>
    <use xlink:href="#b" y="17" x="21"/>
    <use xlink:href="#c" y="17" x="23"/>
    <use xlink:href="#a" y="19" x="23"/>
    <use xlink:href="#c" y="19" x="21"/>
    <use xlink:href="#a" y="22" x="22"/>
    <use xlink:href="#a" y="21" x="21"/>
    <use xlink:href="#c" y="21" x="23"/>
    <use xlink:href="#a" y="23" x="23"/>
    <use xlink:href="#d" y="23" x="21"/>
    <use xlink:href="#d" y="22" x="18"/>
    <use xlink:href="#b" y="21" x="17"/>
    <use xlink:href="#d" y="21" x="19"/>
    <use xlink:href="#a" y="23" x="19"/>
    <use xlink:href="#d" y="23" x="17"/>
    <use xlink:href="#c" y="20" x="28"/>
    <use xlink:href="#b" y="18" x="26"/>
    <use xlink:href="#b" y="17" x="25"/>
    <use xlink:href="#c" y="17" x="27"/>
    <use xlink:href="#b" y="19" x="27"/>
    <use xlink:href="#d" y="19" x="25"/>
    <use xlink:href="#c" y="18" x="30"/>
    <use xlink:href="#b" y="17" x="29"/>
    <use xlink:href="#c" y="17" x="31"/>
    <use xlink:href="#a" y="19" x="31"/>
    <use xlink:href="#c" y="19" x="29"/>
    <use xlink:href="#a" y="22" x="30"/>
    <use xlink:href="#a" y="21" x="29"/>
    <use xlink:href="#c" y="21" x="31"/>
    <use xlink:href="#a" y="23" x="31"/>
    <use xlink:href="#d" y="23" x="29"/>
    <use xlink:href="#c" y="22" x="26"/>
    <use xlink:href="#b" y="21" x="25"/>
    <use xlink:href="#c" y="21" x="27"/>
    <use xlink:href="#a" y="23" x="27"/>
    <use xlink:href="#c" y="23" x="25"/>
    <use xlink:href="#a" y="28" x="28"/>
    <use xlink:href="#a" y="26" x="26"/>
    <use xlink:href="#a" y="25" x="25"/>
    <use xlink:href="#c" y="25" x="27"/>
    <use xlink:href="#a" y="27" x="27"/>
    <use xlink:href="#d" y="27" x="25"/>
    <use xlink:href="#c" y="26" x="30"/>
    <use xlink:href="#b" y="25" x="29"/>
    <use xlink:href="#c" y="25" x="31"/>
    <use xlink:href="#a" y="27" x="31"/>
    <use xlink:href="#c" y="27" x="29"/>
    <use xlink:href="#a" y="30" x="30"/>
    <use xlink:href="#a" y="29" x="29"/>
    <use xlink:href="#c" y="29" x="31"/>
    <use xlink:href="#a" y="31" x="31"/>
    <use xlink:href="#d" y="31" x="29"/>
    <use xlink:href="#d" y="30" x="26"/>
    <use xlink:href="#b" y="29" x="25"/>
    <use xlink:href="#d" y="29" x="27"/>
    <use xlink:href="#a" y="31" x="27"/>
    <use xlink:href="#d" y="31" x="25"/>
    <use xlink:href="#d" y="28" x="20"/>
    <use xlink:href="#b" y="26" x="18"/>
    <use xlink:href="#b" y="25" x="17"/>
    <use xlink:href="#c" y="25" x="19"/>
    <use xlink:href="#b" y="27" x="19"/>
    <use xlink:href="#d" y="27" x="17"/>
    <use xlink:href="#d" y="26" x="22"/>
    <use xlink:href="#b" y="25" x="21"/>
    <use xlink:href="#d" y="25" x="23"/>
    <use xlink:href="#a" y="27" x="23"/>
    <use xlink:href="#d" y="27" x="21"/>
    <use xlink:href="#a" y="30" x="22"/>
    <use xlink:href="#a" y="29" x="21"/>
    <use xlink:href="#c" y="29" x="23"/>
    <use xlink:href="#a" y="31" x="23"/>
    <use xlink:href="#d" y="31" x="21"/>
    <use xlink:href="#d" y="30" x="18"/>
    <use xlink:href="#b" y="29" x="17"/>
    <use xlink:href="#d" y="29" x="19"/>
    <use xlink:href="#a" y="31" x="19"/>
    <use xlink:href="#d" y="31" x="17"/>
    <use xlink:href="#d" y="24" x="8"/>
    <use xlink:href="#b" y="20" x="4"/>
    <use xlink:href="#b" y="18" x="2"/>
    <use xlink:href="#b" y="17" x="1"/>
    <use xlink:href="#c" y="17" x="3"/>
    <use xlink:href="#b" y="19" x="3"/>
    <use xlink:href="#d" y="19" x="1"/>
    <use xlink:href="#c" y="18" x="6"/>
    <use xlink:href="#b" y="17" x="5"/>
    <use xlink:href="#c" y="17" x="7"/>
    <use xlink:href="#a" y="19" x="7"/>
    <use xlink:href="#c" y="19" x="5"/>
    <use xlink:href="#b" y="22" x="6"/>
    <use xlink:href="#b" y="21" x="5"/>
    <use xlink:href="#c" y="21" x="7"/>
    <use xlink:href="#b" y="23" x="7"/>
    <use xlink:href="#d" y="23" x="5"/>
    <use xlink:href="#d" y="22" x="2"/>
    <use xlink:href="#b" y="21" x="1"/>
    <use xlink:href="#d" y="21" x="3"/>
    <use xlink:href="#a" y="23" x="3"/>
    <use xlink:href="#d" y="23" x="1"/>
    <use xlink:href="#d" y="20" x="12"/>
    <use xlink:href="#b" y="18" x="10"/>
    <use xlink:href="#b" y="17" x="9"/>
    <use xlink:href="#c" y="17" x="11"/>
    <use xlink:href="#b" y="19" x="11"/>
    <use xlink:href="#d" y="19" x="9"/>
    <use xlink:href="#d" y="18" x="14"/>
    <use xlink:href="#b" y="17" x="13"/>
    <use xlink:href="#d" y="17" x="15"/>
    <use xlink:href="#a" y="19" x="15"/>
    <use xlink:href="#d" y="19" x="13"/>
    <use xlink:href="#a" y="22" x="14"/>
    <use xlink:href="#a" y="21" x="13"/>
    <use xlink:href="#c" y="21" x="15"/>
    <use xlink:href="#a" y="23" x="15"/>
    <use xlink:href="#d" y="23" x="13"/>
    <use xlink:href="#d" y="22" x="10"/>
    <use xlink:href="#b" y="21" x="9"/>
    <use xlink:href="#d" y="21" x="11"/>
    <use xlink:href="#a" y="23" x="11"/>
    <use xlink:href="#d" y="23" x="9"/>
    <use xlink:href="#a" y="28" x="12"/>
    <use xlink:href="#a" y="26" x="10"/>
    <use xlink:href="#a" y="25" x="9"/>
    <use xlink:href="#c" y="25" x="11"/>
    <use xlink:href="#a" y="27" x="11"/>
    <use xlink:href="#d" y="27" x="9"/>
    <use xlink:href="#c" y="26" x="14"/>
    <use xlink:href="#b" y="25" x="13"/>
    <use xlink:href="#c" y="25" x="15"/>
    <use xlink:href="#a" y="27" x="15"/>
    <use xlink:href="#c" y="27" x="13"/>
    <use xlink:href="#a" y="30" x="14"/>
    <use xlink:href="#a" y="29" x="13"/>
    <use xlink:href="#c" y="29" x="15"/>
    <use xlink:href="#a" y="31" x="15"/>
    <use xlink:href="#d" y="31" x="13"/>
    <use xlink:href="#d" y="30" x="10"/>
    <use xlink:href="#b" y="29" x="9"/>
    <use xlink:href="#d" y="29" x="11"/>
    <use xlink:href="#a" y="31" x="11"/>
    <use xlink:href="#d" y="31" x="9"/>
    <use xlink:href="#d" y="28" x="4"/>
    <use xlink:href="#b" y="26" x="2"/>
    <use xlink:href="#b" y="25" x="1"/>
    <use xlink:href="#c" y="25" x="3"/>
    <use xlink:href="#b" y="27" x="3"/>
    <use xlink:href="#d" y="27" x="1"/>
    <use xlink:href="#d" y="26" x="6"/>
    <use xlink:href="#b" y="25" x="5"/>
    <use xlink:href="#d" y="25" x="7"/>
    <use xlink:href="#a" y="27" x="7"/>
    <use xlink:href="#d" y="27" x="5"/>
    <use xlink:href="#a" y="30" x="6"/>
    <use xlink:href="#a" y="29" x="5"/>
    <use xlink:href="#c" y="29" x="7"/>
    <use xlink:href="#a" y="31" x="7"/>
    <use xlink:href="#d" y="31" x="5"/>
    <use xlink:href="#d" y="30" x="2"/>
    <use xlink:href="#b" y="29" x="1"/>
    <use xlink:href="#d" y="29" x="3"/>
    <use xlink:href="#a" y="31" x="3"/>
    <use xlink:href="#d" y="31" x="1"/>
  </g>
</svg>